<svg width="289" height="516" viewBox="0 0 289 516" fill="none" xmlns="http://www.w3.org/2000/svg">
<path id="ChooseWhatYouSeeIllustration_2" d="M53.0028 102.99L53.0013 114.248C53.0006 119.219 57.0303 123.25 62.0013 123.25L226.156 123.25C232.232 123.25 237.156 128.175 237.156 134.25L237.156 141.009C264.861 141.542 287.156 164.167 287.156 192C287.156 219.832 264.861 242.458 237.157 242.99L237.157 249.75C237.157 255.825 232.232 260.75 226.157 260.75L62 260.75C57.0294 260.75 53 264.78 53 269.75L53 277.554C80.6795 278.064 103 299.687 103 327.545C103 355.377 80.705 378.003 53 378.535L52.9999 385.295C52.9999 390.266 57.0294 394.295 61.9999 394.295L226.158 394.295C232.233 394.295 237.158 399.22 237.158 405.295L237.158 412.1C264.863 412.633 287.158 435.258 287.158 463.09C287.158 491.257 264.325 514.09 236.158 514.09C207.992 514.09 185.158 491.257 185.158 463.09C185.158 435.258 207.453 412.633 235.158 412.1L235.158 405.295C235.158 400.325 231.129 396.295 226.158 396.295L61.9999 396.295C55.9248 396.295 50.9999 391.371 50.9999 385.295L51 378.535C23.295 378.003 0.999949 355.377 0.999948 327.545C0.999947 299.687 23.3205 278.064 51 277.554L51 269.75C51 263.675 55.9248 258.75 62 258.75L226.157 258.75C231.128 258.75 235.157 254.721 235.157 249.75L235.157 242.99C207.452 242.458 185.157 219.832 185.157 192C185.157 164.167 207.451 141.542 235.156 141.009L235.156 134.25C235.156 129.279 231.127 125.25 226.156 125.25L62.0013 125.25C55.9256 125.25 51.0005 120.324 51.0013 114.248L51.0028 102.99C23.2978 102.457 1.00281 79.8318 1.0028 51.9994C1.0028 23.8329 23.8364 0.999889 52.0029 0.999888C80.1694 0.999887 103.002 23.8329 103.002 51.9994C103.002 79.8319 80.7078 102.457 53.0028 102.99Z" stroke="#AFAFAF" stroke-width="1"/>
<path id="ChooseWhatYouSeeIllustration_1" d="M53.0028 102.99L53.0013 114.248C53.0006 119.219 57.0303 123.25 62.0013 123.25L226.156 123.25C232.232 123.25 237.156 128.175 237.156 134.25L237.156 141.009C264.861 141.542 287.156 164.167 287.156 192C287.156 219.832 264.861 242.458 237.157 242.99L237.157 249.75C237.157 255.825 232.232 260.75 226.157 260.75L62 260.75C57.0294 260.75 53 264.78 53 269.75L53 277.554C80.6795 278.064 103 299.687 103 327.545C103 355.377 80.705 378.003 53 378.535L52.9999 385.295C52.9999 390.266 57.0294 394.295 61.9999 394.295L226.158 394.295C232.233 394.295 237.158 399.22 237.158 405.295L237.158 412.1C264.863 412.633 287.158 435.258 287.158 463.09C287.158 491.257 264.325 514.09 236.158 514.09C207.992 514.09 185.158 491.257 185.158 463.09C185.158 435.258 207.453 412.633 235.158 412.1L235.158 405.295C235.158 400.325 231.129 396.295 226.158 396.295L61.9999 396.295C55.9248 396.295 50.9999 391.371 50.9999 385.295L51 378.535C23.295 378.003 0.999949 355.377 0.999948 327.545C0.999947 299.687 23.3205 278.064 51 277.554L51 269.75C51 263.675 55.9248 258.75 62 258.75L226.157 258.75C231.128 258.75 235.157 254.721 235.157 249.75L235.157 242.99C207.452 242.458 185.157 219.832 185.157 192C185.157 164.167 207.451 141.542 235.156 141.009L235.156 134.25C235.156 129.279 231.127 125.25 226.156 125.25L62.0013 125.25C55.9256 125.25 51.0005 120.324 51.0013 114.248L51.0028 102.99C23.2978 102.457 1.00281 79.8318 1.0028 51.9994C1.0028 23.8329 23.8364 0.999889 52.0029 0.999888C80.1694 0.999887 103.002 23.8329 103.002 51.9994C103.002 79.8319 80.7078 102.457 53.0028 102.99Z" stroke="#2968F6" stroke-width="2"/>

<path id="ChooseWhatYouSeeIllustration_2" d="M65.4766 73.875C65.1477 73.8763 64.8268 73.7738 64.5596 73.582L52 64.4766L39.4404 73.582C39.1721 73.7766 38.8488 73.8809 38.5174 73.8797C38.1859 73.8785 37.8634 73.7719 37.5965 73.5753C37.3296 73.3788 37.1321 73.1024 37.0326 72.7862C36.9331 72.47 36.9367 72.1304 37.043 71.8164L41.9414 57.3076L29.2461 48.6016C28.9711 48.4132 28.7636 48.1418 28.6538 47.8271C28.544 47.5124 28.5377 47.1708 28.6359 46.8523C28.7341 46.5337 28.9316 46.2549 29.1995 46.0566C29.4674 45.8583 29.7917 45.7509 30.125 45.75H45.7871L50.5137 31.2041C50.6155 30.8901 50.8142 30.6163 51.0812 30.4222C51.3482 30.2281 51.6699 30.1235 52 30.1235C52.3301 30.1235 52.6518 30.2281 52.9188 30.4222C53.1858 30.6163 53.3845 30.8901 53.4863 31.2041L58.2129 45.7549H73.875C74.2087 45.7547 74.5337 45.8614 74.8024 46.0593C75.0712 46.2573 75.2694 46.536 75.3682 46.8548C75.467 47.1736 75.4612 47.5156 75.3515 47.8308C75.2418 48.146 75.0341 48.4178 74.7588 48.6064L62.0586 57.3076L66.9541 71.8125C67.0334 72.0473 67.0557 72.2977 67.0192 72.5428C66.9826 72.788 66.8883 73.0209 66.7439 73.2224C66.5996 73.4239 66.4094 73.5882 66.189 73.7017C65.9686 73.8151 65.7244 73.8746 65.4766 73.875Z" fill="#3DD6D0"/>
<path id="ChooseWhatYouSeeIllustration_3" d="M243.813 192C241.805 192 239.863 191.104 238.344 189.477C236.866 187.89 235.964 185.773 235.805 183.52C235.635 181.115 236.368 178.904 237.869 177.293C239.37 175.682 241.469 174.812 243.813 174.812C246.14 174.812 248.244 175.697 249.74 177.305C251.251 178.928 251.986 181.135 251.816 183.519C251.653 185.775 250.752 187.891 249.277 189.476C247.762 191.104 245.821 192 243.813 192ZM256.687 209.188H230.939C230.526 209.19 230.117 209.097 229.744 208.916C229.372 208.736 229.046 208.472 228.791 208.146C228.521 207.792 228.335 207.381 228.246 206.945C228.157 206.509 228.167 206.058 228.277 205.627C229.1 202.325 231.137 199.587 234.168 197.709C236.858 196.043 240.283 195.125 243.813 195.125C247.411 195.125 250.746 196.004 253.452 197.669C256.49 199.537 258.53 202.291 259.349 205.633C259.457 206.064 259.467 206.515 259.377 206.951C259.287 207.387 259.1 207.797 258.829 208.15C258.575 208.475 258.25 208.738 257.878 208.917C257.507 209.097 257.099 209.19 256.687 209.188V209.188ZM225.355 192.391C221.919 192.391 218.897 189.195 218.617 185.269C218.479 183.257 219.105 181.396 220.375 180.032C221.631 178.682 223.402 177.938 225.355 177.938C227.309 177.938 229.066 178.686 230.329 180.044C231.608 181.419 232.233 183.275 232.087 185.271C231.807 189.196 228.786 192.391 225.355 192.391ZM231.768 195.462C230.05 194.622 227.82 194.202 225.356 194.202C222.48 194.202 219.686 194.952 217.488 196.313C214.997 197.859 213.321 200.11 212.645 202.828C212.546 203.219 212.536 203.627 212.617 204.022C212.698 204.417 212.867 204.789 213.112 205.109C213.345 205.408 213.642 205.649 213.982 205.814C214.323 205.979 214.696 206.064 215.074 206.062H225.914C226.097 206.062 226.274 205.998 226.415 205.881C226.555 205.764 226.65 205.601 226.683 205.421C226.693 205.359 226.707 205.298 226.723 205.237C227.551 201.911 229.491 199.101 232.358 197.052C232.464 196.976 232.549 196.875 232.605 196.758C232.662 196.64 232.688 196.511 232.682 196.381C232.676 196.251 232.637 196.125 232.57 196.014C232.503 195.903 232.409 195.81 232.297 195.744C232.144 195.654 231.968 195.56 231.768 195.462V195.462Z" fill="#3DD6D0"/>
<path id="ChooseWhatYouSeeIllustration_4" d="M251.468 447.545C249.44 445.497 247.028 443.87 244.37 442.758C241.711 441.645 238.859 441.069 235.978 441.062C233.096 441.055 230.241 441.617 227.578 442.716C224.914 443.816 222.494 445.431 220.456 447.469C218.418 449.506 216.803 451.927 215.704 454.59C214.604 457.254 214.042 460.109 214.049 462.99C214.056 465.872 214.632 468.724 215.745 471.382C216.858 474.041 218.485 476.453 220.532 478.48C222.56 480.528 224.972 482.155 227.63 483.268C230.289 484.38 233.141 484.957 236.022 484.964C238.904 484.971 241.759 484.409 244.422 483.309C247.086 482.209 249.506 480.594 251.544 478.557C253.582 476.519 255.197 474.099 256.296 471.435C257.396 468.771 257.958 465.917 257.951 463.035C257.944 460.153 257.368 457.301 256.255 454.643C255.142 451.985 253.515 449.573 251.468 447.545V447.545ZM217.25 463.013C217.249 461.353 217.469 459.701 217.904 458.1C218.621 459.643 219.662 460.976 220.37 462.559C221.285 464.594 223.742 464.029 224.827 465.813C225.79 467.396 224.762 469.397 225.482 471.054C226.006 472.256 227.24 472.519 228.092 473.397C228.962 474.284 228.943 475.499 229.076 476.655C229.226 478.014 229.469 479.36 229.804 480.686C229.804 480.695 229.804 480.706 229.812 480.716C222.504 478.149 217.25 471.184 217.25 463.013ZM236 481.763C234.953 481.762 233.908 481.675 232.875 481.501C232.886 481.236 232.891 480.989 232.917 480.817C233.154 479.265 233.932 477.746 234.98 476.584C236.017 475.438 237.437 474.662 238.312 473.361C239.169 472.092 239.426 470.383 239.072 468.899C238.552 466.708 235.574 465.977 233.969 464.788C233.046 464.104 232.225 463.048 231.013 462.962C230.454 462.923 229.986 463.043 229.433 462.9C228.925 462.769 228.526 462.495 227.985 462.566C226.975 462.699 226.337 463.779 225.251 463.633C224.221 463.495 223.159 462.289 222.925 461.308C222.624 460.046 223.622 459.637 224.691 459.524C225.138 459.478 225.639 459.427 226.067 459.591C226.632 459.8 226.898 460.353 227.405 460.632C228.355 461.153 228.548 460.32 228.402 459.477C228.185 458.213 227.931 457.698 229.058 456.828C229.839 456.229 230.507 455.795 230.382 454.718C230.308 454.085 229.961 453.799 230.284 453.169C230.529 452.689 231.202 452.257 231.641 451.971C232.772 451.232 236.489 451.287 234.971 449.221C234.524 448.614 233.701 447.53 232.92 447.382C231.943 447.197 231.51 448.287 230.829 448.768C230.126 449.265 228.757 449.829 228.053 449.061C227.105 448.026 228.681 447.688 229.029 446.965C229.19 446.628 229.029 446.16 228.758 445.72C229.11 445.571 229.468 445.434 229.832 445.307C230.06 445.475 230.331 445.577 230.613 445.6C231.267 445.643 231.883 445.289 232.453 445.734C233.086 446.223 233.542 446.84 234.382 446.992C235.194 447.14 236.055 446.666 236.256 445.834C236.378 445.328 236.256 444.794 236.139 444.271C239.791 444.292 243.357 445.386 246.393 447.417C246.197 447.343 245.964 447.352 245.676 447.485C245.083 447.761 244.243 448.462 244.174 449.157C244.095 449.946 245.259 450.058 245.812 450.058C246.642 450.058 247.482 449.687 247.215 448.728C247.099 448.312 246.94 447.879 246.686 447.617C247.298 448.042 247.885 448.503 248.443 448.998C248.435 449.007 248.426 449.015 248.417 449.024C247.854 449.61 247.201 450.074 246.816 450.787C246.545 451.289 246.239 451.527 245.689 451.657C245.387 451.729 245.041 451.755 244.787 451.958C244.08 452.515 244.482 453.853 245.152 454.254C245.999 454.761 247.255 454.522 247.894 453.799C248.393 453.232 248.687 452.249 249.584 452.25C249.979 452.249 250.359 452.404 250.641 452.681C251.012 453.065 250.938 453.425 251.018 453.905C251.157 454.759 251.91 454.296 252.368 453.865C252.702 454.459 253.003 455.071 253.271 455.698C252.767 456.424 252.366 457.215 251.154 456.369C250.429 455.862 249.982 455.127 249.071 454.898C248.275 454.703 247.46 454.906 246.674 455.042C245.78 455.197 244.721 455.266 244.043 455.942C243.388 456.595 243.041 457.468 242.344 458.123C240.995 459.393 240.426 460.778 241.299 462.573C242.139 464.299 243.896 465.235 245.791 465.112C247.653 464.988 249.588 463.908 249.534 466.614C249.515 467.572 249.715 468.235 250.009 469.125C250.281 469.945 250.263 470.74 250.325 471.587C250.385 472.578 250.54 473.562 250.788 474.523C249.038 476.777 246.795 478.601 244.232 479.856C241.669 481.11 238.854 481.763 236 481.763V481.763Z" fill="#3DD6D0"/>
<path id="ChooseWhatYouSeeIllustration_5" d="M52 334.25C55.4518 334.25 58.25 331.452 58.25 328C58.25 324.548 55.4518 321.75 52 321.75C48.5482 321.75 45.75 324.548 45.75 328C45.75 331.452 48.5482 334.25 52 334.25Z" fill="#3DD6D0"/>
<path id="ChooseWhatYouSeeIllustration_6" d="M74.9336 326.301C72.3496 322.305 68.9971 318.91 65.2393 316.483C61.082 313.796 56.4922 312.375 51.9668 312.375C47.8145 312.375 43.7314 313.562 39.8311 315.901C35.8535 318.287 32.25 321.772 29.1201 326.26C28.7668 326.767 28.5722 327.368 28.5611 327.986C28.5499 328.604 28.7228 329.211 29.0576 329.73C31.6367 333.767 34.9561 337.166 38.6553 339.56C42.8203 342.258 47.3027 343.625 51.9668 343.625C56.5283 343.625 61.1279 342.216 65.2676 339.551C69.0234 337.132 72.3692 333.725 74.9434 329.695C75.2667 329.188 75.4376 328.598 75.4359 327.997C75.4341 327.395 75.2598 326.806 74.9336 326.301V326.301ZM52 337.375C50.1458 337.375 48.3332 336.825 46.7915 335.795C45.2498 334.765 44.0482 333.301 43.3386 331.588C42.6291 329.875 42.4434 327.99 42.8051 326.171C43.1669 324.352 44.0598 322.682 45.3709 321.371C46.682 320.06 48.3525 319.167 50.171 318.805C51.9896 318.443 53.8746 318.629 55.5877 319.339C57.3007 320.048 58.7649 321.25 59.795 322.792C60.8252 324.333 61.375 326.146 61.375 328C61.3722 330.486 60.3835 332.868 58.626 334.626C56.8685 336.384 54.4855 337.372 52 337.375V337.375Z" fill="#3DD6D0"/>
<path id="ChooseWhatYouSeeIllustration_7" d="M132.221 53.5283C132.114 54.666 131.694 55.5547 130.961 56.1943C130.229 56.8291 129.255 57.1465 128.039 57.1465C127.189 57.1465 126.44 56.9463 125.791 56.5459C125.146 56.1406 124.648 55.5669 124.296 54.8247C123.945 54.0825 123.762 53.2207 123.747 52.2393V51.2432C123.747 50.2373 123.925 49.3511 124.282 48.5845C124.638 47.8179 125.148 47.2271 125.812 46.812C126.481 46.397 127.253 46.1895 128.127 46.1895C129.304 46.1895 130.251 46.5093 130.969 47.1489C131.687 47.7886 132.104 48.6919 132.221 49.8589H130.375C130.288 49.0923 130.063 48.5405 129.702 48.2036C129.345 47.8618 128.82 47.6909 128.127 47.6909C127.321 47.6909 126.701 47.9863 126.267 48.5771C125.837 49.1631 125.617 50.0249 125.607 51.1626V52.1074C125.607 53.2598 125.812 54.1387 126.223 54.7441C126.638 55.3496 127.243 55.6523 128.039 55.6523C128.767 55.6523 129.313 55.4888 129.68 55.1616C130.046 54.8345 130.278 54.29 130.375 53.5283H132.221ZM135.605 57H133.825V45.75H135.605V57ZM137.216 52.9644C137.216 52.188 137.37 51.4897 137.678 50.8696C137.985 50.2446 138.417 49.7661 138.974 49.4341C139.531 49.0972 140.17 48.9287 140.893 48.9287C141.962 48.9287 142.829 49.2729 143.493 49.9614C144.162 50.6499 144.523 51.563 144.577 52.7007L144.584 53.1182C144.584 53.8994 144.433 54.5977 144.13 55.2129C143.833 55.8281 143.403 56.3042 142.841 56.6411C142.285 56.978 141.64 57.1465 140.908 57.1465C139.79 57.1465 138.894 56.7754 138.22 56.0332C137.551 55.2861 137.216 54.2925 137.216 53.0522V52.9644ZM138.996 53.1182C138.996 53.9336 139.165 54.5732 139.501 55.0371C139.838 55.4961 140.307 55.7256 140.908 55.7256C141.508 55.7256 141.975 55.4912 142.307 55.0225C142.644 54.5537 142.812 53.8677 142.812 52.9644C142.812 52.1636 142.639 51.5288 142.292 51.0601C141.95 50.5913 141.484 50.3569 140.893 50.3569C140.312 50.3569 139.851 50.5889 139.509 51.0527C139.167 51.5117 138.996 52.2002 138.996 53.1182ZM150.532 54.8467C150.532 54.5293 150.4 54.2876 150.136 54.1216C149.877 53.9556 149.445 53.8091 148.84 53.6821C148.234 53.5552 147.729 53.394 147.324 53.1987C146.435 52.769 145.991 52.1465 145.991 51.3311C145.991 50.6475 146.279 50.0762 146.855 49.6172C147.431 49.1582 148.164 48.9287 149.052 48.9287C150 48.9287 150.764 49.1631 151.345 49.6318C151.931 50.1006 152.224 50.7085 152.224 51.4556H150.444C150.444 51.1138 150.317 50.8306 150.063 50.606C149.809 50.3765 149.472 50.2617 149.052 50.2617C148.662 50.2617 148.342 50.3521 148.093 50.5327C147.849 50.7134 147.727 50.9551 147.727 51.2578C147.727 51.5312 147.841 51.7437 148.071 51.895C148.3 52.0464 148.764 52.2002 149.462 52.3564C150.161 52.5078 150.708 52.6909 151.103 52.9058C151.503 53.1157 151.799 53.3696 151.989 53.6675C152.185 53.9653 152.282 54.3267 152.282 54.7515C152.282 55.4644 151.987 56.043 151.396 56.4873C150.805 56.9268 150.031 57.1465 149.074 57.1465C148.425 57.1465 147.846 57.0293 147.338 56.7949C146.831 56.5605 146.435 56.2383 146.152 55.8281C145.869 55.418 145.727 54.9761 145.727 54.5024H147.456C147.48 54.9224 147.639 55.2471 147.932 55.4766C148.225 55.7012 148.613 55.8135 149.096 55.8135C149.565 55.8135 149.921 55.7256 150.166 55.5498C150.41 55.3691 150.532 55.1348 150.532 54.8467ZM157.329 57.1465C156.201 57.1465 155.285 56.7925 154.582 56.0845C153.884 55.3716 153.535 54.4243 153.535 53.2427V53.0229C153.535 52.2319 153.686 51.5264 153.989 50.9062C154.296 50.2812 154.726 49.7954 155.278 49.4487C155.83 49.1021 156.445 48.9287 157.124 48.9287C158.203 48.9287 159.035 49.2729 159.621 49.9614C160.212 50.6499 160.507 51.624 160.507 52.8838V53.6016H155.329C155.383 54.2559 155.6 54.7734 155.981 55.1543C156.367 55.5352 156.85 55.7256 157.431 55.7256C158.247 55.7256 158.911 55.396 159.423 54.7368L160.383 55.6523C160.065 56.126 159.641 56.4946 159.108 56.7583C158.581 57.0171 157.988 57.1465 157.329 57.1465ZM157.116 50.3569C156.628 50.3569 156.232 50.5278 155.93 50.8696C155.632 51.2114 155.441 51.6875 155.358 52.2979H158.75V52.166C158.71 51.5703 158.552 51.1211 158.273 50.8184C157.995 50.5107 157.609 50.3569 157.116 50.3569ZM171.948 52.481H167.656V57H165.803V46.3359H172.578V47.8301H167.656V51.0015H171.948V52.481ZM177.836 50.7012C177.602 50.6621 177.36 50.6426 177.111 50.6426C176.296 50.6426 175.747 50.9551 175.463 51.5801V57H173.684V49.0752H175.383L175.427 49.9614C175.856 49.2729 176.452 48.9287 177.214 48.9287C177.468 48.9287 177.678 48.9629 177.844 49.0312L177.836 50.7012ZM180.854 57H179.074V49.0752H180.854V57ZM178.964 47.0171C178.964 46.7437 179.05 46.5166 179.221 46.3359C179.396 46.1553 179.646 46.0649 179.968 46.0649C180.29 46.0649 180.539 46.1553 180.715 46.3359C180.891 46.5166 180.979 46.7437 180.979 47.0171C180.979 47.2856 180.891 47.5103 180.715 47.6909C180.539 47.8667 180.29 47.9546 179.968 47.9546C179.646 47.9546 179.396 47.8667 179.221 47.6909C179.05 47.5103 178.964 47.2856 178.964 47.0171ZM186.289 57.1465C185.161 57.1465 184.245 56.7925 183.542 56.0845C182.844 55.3716 182.495 54.4243 182.495 53.2427V53.0229C182.495 52.2319 182.646 51.5264 182.949 50.9062C183.256 50.2812 183.686 49.7954 184.238 49.4487C184.79 49.1021 185.405 48.9287 186.083 48.9287C187.163 48.9287 187.995 49.2729 188.581 49.9614C189.172 50.6499 189.467 51.624 189.467 52.8838V53.6016H184.289C184.343 54.2559 184.56 54.7734 184.941 55.1543C185.327 55.5352 185.81 55.7256 186.391 55.7256C187.207 55.7256 187.871 55.396 188.383 54.7368L189.343 55.6523C189.025 56.126 188.601 56.4946 188.068 56.7583C187.541 57.0171 186.948 57.1465 186.289 57.1465ZM186.076 50.3569C185.588 50.3569 185.192 50.5278 184.89 50.8696C184.592 51.2114 184.401 51.6875 184.318 52.2979H187.709V52.166C187.67 51.5703 187.512 51.1211 187.233 50.8184C186.955 50.5107 186.569 50.3569 186.076 50.3569ZM192.507 49.0752L192.558 49.9907C193.144 49.2827 193.913 48.9287 194.865 48.9287C196.516 48.9287 197.355 49.8735 197.385 51.7632V57H195.605V51.8657C195.605 51.3628 195.495 50.9917 195.275 50.7524C195.061 50.5083 194.707 50.3862 194.213 50.3862C193.496 50.3862 192.961 50.7109 192.609 51.3604V57H190.83V49.0752H192.507ZM198.872 52.979C198.872 51.7583 199.155 50.7793 199.721 50.042C200.288 49.2998 201.047 48.9287 201.999 48.9287C202.839 48.9287 203.518 49.2217 204.035 49.8076V45.75H205.815V57H204.204L204.116 56.1797C203.583 56.8242 202.873 57.1465 201.984 57.1465C201.057 57.1465 200.305 56.7729 199.729 56.0259C199.157 55.2788 198.872 54.2632 198.872 52.979ZM200.651 53.1328C200.651 53.9385 200.805 54.5684 201.113 55.0225C201.425 55.4717 201.867 55.6963 202.438 55.6963C203.166 55.6963 203.698 55.3716 204.035 54.7222V51.3384C203.708 50.7036 203.181 50.3862 202.453 50.3862C201.877 50.3862 201.433 50.6157 201.12 51.0747C200.808 51.5288 200.651 52.2148 200.651 53.1328ZM212.114 54.8467C212.114 54.5293 211.982 54.2876 211.718 54.1216C211.459 53.9556 211.027 53.8091 210.422 53.6821C209.816 53.5552 209.311 53.394 208.906 53.1987C208.017 52.769 207.573 52.1465 207.573 51.3311C207.573 50.6475 207.861 50.0762 208.437 49.6172C209.013 49.1582 209.746 48.9287 210.634 48.9287C211.582 48.9287 212.346 49.1631 212.927 49.6318C213.513 50.1006 213.806 50.7085 213.806 51.4556H212.026C212.026 51.1138 211.899 50.8306 211.645 50.606C211.391 50.3765 211.054 50.2617 210.634 50.2617C210.244 50.2617 209.924 50.3521 209.675 50.5327C209.431 50.7134 209.309 50.9551 209.309 51.2578C209.309 51.5312 209.423 51.7437 209.653 51.895C209.882 52.0464 210.346 52.2002 211.044 52.3564C211.743 52.5078 212.29 52.6909 212.685 52.9058C213.085 53.1157 213.381 53.3696 213.571 53.6675C213.767 53.9653 213.864 54.3267 213.864 54.7515C213.864 55.4644 213.569 56.043 212.978 56.4873C212.387 56.9268 211.613 57.1465 210.656 57.1465C210.007 57.1465 209.428 57.0293 208.92 56.7949C208.413 56.5605 208.017 56.2383 207.734 55.8281C207.451 55.418 207.309 54.9761 207.309 54.5024H209.038C209.062 54.9224 209.221 55.2471 209.514 55.4766C209.807 55.7012 210.195 55.8135 210.678 55.8135C211.147 55.8135 211.503 55.7256 211.748 55.5498C211.992 55.3691 212.114 55.1348 212.114 54.8467Z" fill="#2968F6"/>
<path id="ChooseWhatYouSeeIllustration_8" d="M130.053 332.517H125.922L125.058 335H123.132L127.16 324.336H128.823L132.858 335H130.925L130.053 332.517ZM126.442 331.023H129.533L127.988 326.599L126.442 331.023ZM137.158 333.726C137.602 333.726 137.971 333.596 138.264 333.337C138.557 333.079 138.713 332.759 138.732 332.378H140.41C140.39 332.871 140.236 333.333 139.948 333.762C139.66 334.187 139.27 334.524 138.776 334.773C138.283 335.022 137.751 335.146 137.18 335.146C136.071 335.146 135.192 334.788 134.543 334.07C133.894 333.352 133.569 332.361 133.569 331.096V330.913C133.569 329.707 133.891 328.743 134.536 328.02C135.18 327.292 136.059 326.929 137.172 326.929C138.115 326.929 138.881 327.205 139.472 327.756C140.068 328.303 140.38 329.023 140.41 329.917H138.732C138.713 329.463 138.557 329.089 138.264 328.796C137.976 328.503 137.607 328.357 137.158 328.357C136.582 328.357 136.137 328.567 135.825 328.987C135.512 329.402 135.354 330.034 135.349 330.884V331.169C135.349 332.029 135.502 332.671 135.81 333.096C136.123 333.516 136.572 333.726 137.158 333.726ZM141.42 330.972C141.42 329.731 141.704 328.748 142.27 328.02C142.836 327.292 143.603 326.929 144.57 326.929C145.454 326.929 146.154 327.239 146.672 327.859L146.774 327.075H148.356V338.047H146.577V334.326C146.059 334.873 145.385 335.146 144.555 335.146C143.608 335.146 142.849 334.778 142.277 334.041C141.706 333.298 141.42 332.275 141.42 330.972ZM143.2 331.125C143.2 331.936 143.359 332.573 143.676 333.037C143.999 333.496 144.443 333.726 145.009 333.726C145.712 333.726 146.235 333.425 146.577 332.825V329.221C146.235 328.645 145.717 328.357 145.024 328.357C144.458 328.357 144.011 328.584 143.684 329.038C143.361 329.492 143.2 330.188 143.2 331.125ZM155.08 334.224C154.558 334.839 153.815 335.146 152.854 335.146C151.994 335.146 151.342 334.895 150.898 334.392C150.458 333.889 150.239 333.162 150.239 332.209V327.075H152.019V332.188C152.019 333.193 152.436 333.696 153.271 333.696C154.135 333.696 154.719 333.386 155.021 332.766V327.075H156.801V335H155.124L155.08 334.224ZM163.349 335C163.271 334.849 163.203 334.602 163.144 334.26C162.578 334.851 161.884 335.146 161.064 335.146C160.268 335.146 159.619 334.919 159.116 334.465C158.613 334.011 158.361 333.45 158.361 332.781C158.361 331.936 158.674 331.289 159.299 330.84C159.929 330.386 160.827 330.159 161.994 330.159H163.085V329.639C163.085 329.229 162.971 328.901 162.741 328.657C162.512 328.408 162.163 328.284 161.694 328.284C161.289 328.284 160.957 328.386 160.698 328.591C160.439 328.792 160.31 329.048 160.31 329.36H158.53C158.53 328.926 158.674 328.521 158.962 328.145C159.25 327.764 159.641 327.466 160.134 327.251C160.632 327.036 161.186 326.929 161.796 326.929C162.724 326.929 163.464 327.163 164.016 327.632C164.567 328.096 164.851 328.75 164.865 329.595V333.169C164.865 333.882 164.965 334.451 165.166 334.875V335H163.349ZM161.394 333.718C161.745 333.718 162.075 333.633 162.382 333.462C162.695 333.291 162.929 333.062 163.085 332.773V331.279H162.126C161.467 331.279 160.971 331.394 160.639 331.624C160.307 331.853 160.141 332.178 160.141 332.598C160.141 332.939 160.253 333.213 160.478 333.418C160.708 333.618 161.013 333.718 161.394 333.718ZM168.959 325.149V327.075H170.358V328.394H168.959V332.817C168.959 333.12 169.018 333.34 169.135 333.477C169.257 333.608 169.472 333.674 169.78 333.674C169.985 333.674 170.192 333.65 170.402 333.601V334.978C169.997 335.09 169.606 335.146 169.23 335.146C167.863 335.146 167.18 334.392 167.18 332.883V328.394H165.876V327.075H167.18V325.149H168.959ZM176.459 335C176.381 334.849 176.313 334.602 176.254 334.26C175.688 334.851 174.995 335.146 174.174 335.146C173.378 335.146 172.729 334.919 172.226 334.465C171.723 334.011 171.472 333.45 171.472 332.781C171.472 331.936 171.784 331.289 172.409 330.84C173.039 330.386 173.938 330.159 175.104 330.159H176.196V329.639C176.196 329.229 176.081 328.901 175.852 328.657C175.622 328.408 175.273 328.284 174.804 328.284C174.399 328.284 174.067 328.386 173.808 328.591C173.549 328.792 173.42 329.048 173.42 329.36H171.64C171.64 328.926 171.784 328.521 172.072 328.145C172.36 327.764 172.751 327.466 173.244 327.251C173.742 327.036 174.296 326.929 174.907 326.929C175.834 326.929 176.574 327.163 177.126 327.632C177.678 328.096 177.961 328.75 177.976 329.595V333.169C177.976 333.882 178.076 334.451 178.276 334.875V335H176.459ZM174.504 333.718C174.855 333.718 175.185 333.633 175.493 333.462C175.805 333.291 176.04 333.062 176.196 332.773V331.279H175.236C174.577 331.279 174.082 331.394 173.75 331.624C173.417 331.853 173.251 332.178 173.251 332.598C173.251 332.939 173.364 333.213 173.588 333.418C173.818 333.618 174.123 333.718 174.504 333.718ZM181.491 327.075L181.542 327.991C182.128 327.283 182.897 326.929 183.85 326.929C185.5 326.929 186.34 327.874 186.369 329.763V335H184.589V329.866C184.589 329.363 184.479 328.992 184.26 328.752C184.045 328.508 183.691 328.386 183.198 328.386C182.48 328.386 181.945 328.711 181.594 329.36V335H179.814V327.075H181.491ZM191.445 333.726C191.889 333.726 192.258 333.596 192.551 333.337C192.844 333.079 193 332.759 193.02 332.378H194.697C194.677 332.871 194.523 333.333 194.235 333.762C193.947 334.187 193.557 334.524 193.063 334.773C192.57 335.022 192.038 335.146 191.467 335.146C190.358 335.146 189.479 334.788 188.83 334.07C188.181 333.352 187.856 332.361 187.856 331.096V330.913C187.856 329.707 188.178 328.743 188.823 328.02C189.467 327.292 190.346 326.929 191.459 326.929C192.402 326.929 193.168 327.205 193.759 327.756C194.355 328.303 194.667 329.023 194.697 329.917H193.02C193 329.463 192.844 329.089 192.551 328.796C192.263 328.503 191.894 328.357 191.445 328.357C190.869 328.357 190.424 328.567 190.112 328.987C189.799 329.402 189.641 330.034 189.636 330.884V331.169C189.636 332.029 189.79 332.671 190.097 333.096C190.41 333.516 190.859 333.726 191.445 333.726ZM199.531 335.146C198.403 335.146 197.487 334.792 196.784 334.084C196.086 333.372 195.737 332.424 195.737 331.243V331.023C195.737 330.232 195.888 329.526 196.191 328.906C196.499 328.281 196.928 327.795 197.48 327.449C198.032 327.102 198.647 326.929 199.326 326.929C200.405 326.929 201.237 327.273 201.823 327.961C202.414 328.65 202.709 329.624 202.709 330.884V331.602H197.531C197.585 332.256 197.802 332.773 198.183 333.154C198.569 333.535 199.052 333.726 199.633 333.726C200.449 333.726 201.113 333.396 201.625 332.737L202.585 333.652C202.268 334.126 201.843 334.495 201.311 334.758C200.783 335.017 200.19 335.146 199.531 335.146ZM199.318 328.357C198.83 328.357 198.435 328.528 198.132 328.87C197.834 329.211 197.644 329.688 197.561 330.298H200.952V330.166C200.913 329.57 200.754 329.121 200.476 328.818C200.197 328.511 199.812 328.357 199.318 328.357ZM208.54 332.847C208.54 332.529 208.408 332.288 208.144 332.122C207.885 331.956 207.453 331.809 206.848 331.682C206.242 331.555 205.737 331.394 205.332 331.199C204.443 330.769 203.999 330.146 203.999 329.331C203.999 328.647 204.287 328.076 204.863 327.617C205.439 327.158 206.171 326.929 207.06 326.929C208.007 326.929 208.771 327.163 209.353 327.632C209.938 328.101 210.231 328.708 210.231 329.456H208.452C208.452 329.114 208.325 328.831 208.071 328.606C207.817 328.376 207.48 328.262 207.06 328.262C206.669 328.262 206.35 328.352 206.101 328.533C205.856 328.713 205.734 328.955 205.734 329.258C205.734 329.531 205.849 329.744 206.079 329.895C206.308 330.046 206.772 330.2 207.47 330.356C208.168 330.508 208.715 330.691 209.111 330.906C209.511 331.116 209.807 331.37 209.997 331.667C210.192 331.965 210.29 332.327 210.29 332.751C210.29 333.464 209.995 334.043 209.404 334.487C208.813 334.927 208.039 335.146 207.082 335.146C206.433 335.146 205.854 335.029 205.346 334.795C204.838 334.561 204.443 334.238 204.16 333.828C203.876 333.418 203.735 332.976 203.735 332.502H205.463C205.488 332.922 205.646 333.247 205.939 333.477C206.232 333.701 206.621 333.813 207.104 333.813C207.573 333.813 207.929 333.726 208.173 333.55C208.417 333.369 208.54 333.135 208.54 332.847Z" fill="#2968F6"/>
<path id="ChooseWhatYouSeeIllustration_9" d="M129.937 467.038V471H128.084V460.336H132.164C133.355 460.336 134.3 460.646 134.998 461.266C135.701 461.886 136.053 462.707 136.053 463.727C136.053 464.772 135.708 465.585 135.02 466.166C134.336 466.747 133.377 467.038 132.142 467.038H129.937ZM129.937 465.551H132.164C132.823 465.551 133.326 465.397 133.672 465.089C134.019 464.777 134.192 464.328 134.192 463.742C134.192 463.166 134.017 462.707 133.665 462.365C133.313 462.018 132.83 461.84 132.215 461.83H129.937V465.551ZM142.308 470.224C141.785 470.839 141.043 471.146 140.081 471.146C139.222 471.146 138.57 470.895 138.125 470.392C137.686 469.889 137.466 469.162 137.466 468.209V463.075H139.246V468.188C139.246 469.193 139.664 469.696 140.499 469.696C141.363 469.696 141.946 469.386 142.249 468.766V463.075H144.029V471H142.352L142.308 470.224ZM152.796 467.118C152.796 468.349 152.52 469.328 151.968 470.055C151.421 470.783 150.667 471.146 149.705 471.146C148.777 471.146 148.055 470.812 147.537 470.143L147.449 471H145.838V459.75H147.618V463.837C148.13 463.231 148.821 462.929 149.69 462.929C150.657 462.929 151.417 463.288 151.968 464.005C152.52 464.723 152.796 465.727 152.796 467.016V467.118ZM151.016 466.964C151.016 466.105 150.865 465.46 150.562 465.031C150.259 464.601 149.82 464.386 149.244 464.386C148.472 464.386 147.93 464.723 147.618 465.397V468.664C147.935 469.352 148.482 469.696 149.258 469.696C149.815 469.696 150.245 469.489 150.547 469.074C150.85 468.659 151.006 468.031 151.016 467.191V466.964ZM156.187 471H154.407V459.75H156.187V471ZM160.025 471H158.245V463.075H160.025V471ZM158.135 461.017C158.135 460.744 158.221 460.517 158.392 460.336C158.567 460.155 158.816 460.065 159.139 460.065C159.461 460.065 159.71 460.155 159.886 460.336C160.062 460.517 160.149 460.744 160.149 461.017C160.149 461.286 160.062 461.51 159.886 461.691C159.71 461.867 159.461 461.955 159.139 461.955C158.816 461.955 158.567 461.867 158.392 461.691C158.221 461.51 158.135 461.286 158.135 461.017ZM165.225 469.726C165.669 469.726 166.038 469.596 166.331 469.337C166.624 469.079 166.78 468.759 166.8 468.378H168.477C168.458 468.871 168.304 469.333 168.016 469.762C167.728 470.187 167.337 470.524 166.844 470.773C166.351 471.022 165.818 471.146 165.247 471.146C164.139 471.146 163.26 470.788 162.61 470.07C161.961 469.352 161.636 468.361 161.636 467.096V466.913C161.636 465.707 161.958 464.743 162.603 464.02C163.248 463.292 164.126 462.929 165.24 462.929C166.182 462.929 166.949 463.205 167.54 463.756C168.135 464.303 168.448 465.023 168.477 465.917H166.8C166.78 465.463 166.624 465.089 166.331 464.796C166.043 464.503 165.674 464.357 165.225 464.357C164.649 464.357 164.205 464.567 163.892 464.987C163.58 465.402 163.421 466.034 163.416 466.884V467.169C163.416 468.029 163.57 468.671 163.877 469.096C164.19 469.516 164.639 469.726 165.225 469.726Z" fill="#2968F6"/>
<path id="ChooseWhatYouSeeIllustration_10" d="M121.229 191.481H116.937V196H115.084V185.336H121.859V186.83H116.937V190.001H121.229V191.481ZM127.118 189.701C126.883 189.662 126.642 189.643 126.393 189.643C125.577 189.643 125.028 189.955 124.745 190.58V196H122.965V188.075H124.664L124.708 188.961C125.138 188.273 125.733 187.929 126.495 187.929C126.749 187.929 126.959 187.963 127.125 188.031L127.118 189.701ZM130.135 196H128.355V188.075H130.135V196ZM128.246 186.017C128.246 185.744 128.331 185.517 128.502 185.336C128.678 185.155 128.927 185.065 129.249 185.065C129.571 185.065 129.82 185.155 129.996 185.336C130.172 185.517 130.26 185.744 130.26 186.017C130.26 186.286 130.172 186.51 129.996 186.691C129.82 186.867 129.571 186.955 129.249 186.955C128.927 186.955 128.678 186.867 128.502 186.691C128.331 186.51 128.246 186.286 128.246 186.017ZM135.57 196.146C134.442 196.146 133.526 195.792 132.823 195.084C132.125 194.372 131.776 193.424 131.776 192.243V192.023C131.776 191.232 131.927 190.526 132.23 189.906C132.538 189.281 132.967 188.795 133.519 188.449C134.071 188.102 134.686 187.929 135.365 187.929C136.444 187.929 137.276 188.273 137.862 188.961C138.453 189.65 138.749 190.624 138.749 191.884V192.602H133.57C133.624 193.256 133.841 193.773 134.222 194.154C134.608 194.535 135.091 194.726 135.672 194.726C136.488 194.726 137.152 194.396 137.665 193.737L138.624 194.652C138.307 195.126 137.882 195.495 137.35 195.758C136.822 196.017 136.229 196.146 135.57 196.146ZM135.357 189.357C134.869 189.357 134.474 189.528 134.171 189.87C133.873 190.211 133.683 190.688 133.6 191.298H136.991V191.166C136.952 190.57 136.793 190.121 136.515 189.818C136.236 189.511 135.851 189.357 135.357 189.357ZM141.788 188.075L141.839 188.991C142.425 188.283 143.194 187.929 144.146 187.929C145.797 187.929 146.637 188.874 146.666 190.763V196H144.886V190.866C144.886 190.363 144.776 189.992 144.557 189.752C144.342 189.508 143.988 189.386 143.495 189.386C142.777 189.386 142.242 189.711 141.891 190.36V196H140.111V188.075H141.788ZM148.153 191.979C148.153 190.758 148.436 189.779 149.002 189.042C149.569 188.3 150.328 187.929 151.28 187.929C152.12 187.929 152.799 188.222 153.316 188.808V184.75H155.096V196H153.485L153.397 195.18C152.865 195.824 152.154 196.146 151.266 196.146C150.338 196.146 149.586 195.773 149.01 195.026C148.438 194.279 148.153 193.263 148.153 191.979ZM149.933 192.133C149.933 192.938 150.086 193.568 150.394 194.022C150.707 194.472 151.148 194.696 151.72 194.696C152.447 194.696 152.979 194.372 153.316 193.722V190.338C152.989 189.704 152.462 189.386 151.734 189.386C151.158 189.386 150.714 189.616 150.401 190.075C150.089 190.529 149.933 191.215 149.933 192.133ZM161.395 193.847C161.395 193.529 161.263 193.288 161 193.122C160.741 192.956 160.309 192.809 159.703 192.682C159.098 192.555 158.592 192.394 158.187 192.199C157.298 191.769 156.854 191.146 156.854 190.331C156.854 189.647 157.142 189.076 157.718 188.617C158.294 188.158 159.027 187.929 159.916 187.929C160.863 187.929 161.627 188.163 162.208 188.632C162.794 189.101 163.087 189.708 163.087 190.456H161.307C161.307 190.114 161.18 189.831 160.926 189.606C160.672 189.376 160.335 189.262 159.916 189.262C159.525 189.262 159.205 189.352 158.956 189.533C158.712 189.713 158.59 189.955 158.59 190.258C158.59 190.531 158.705 190.744 158.934 190.895C159.164 191.046 159.627 191.2 160.326 191.356C161.024 191.508 161.571 191.691 161.966 191.906C162.367 192.116 162.662 192.37 162.853 192.667C163.048 192.965 163.146 193.327 163.146 193.751C163.146 194.464 162.85 195.043 162.259 195.487C161.668 195.927 160.895 196.146 159.938 196.146C159.288 196.146 158.709 196.029 158.202 195.795C157.694 195.561 157.298 195.238 157.015 194.828C156.732 194.418 156.59 193.976 156.59 193.502H158.319C158.343 193.922 158.502 194.247 158.795 194.477C159.088 194.701 159.476 194.813 159.959 194.813C160.428 194.813 160.785 194.726 161.029 194.55C161.273 194.369 161.395 194.135 161.395 193.847Z" fill="#2968F6"/>
</svg>
