<svg width="116" height="40" viewBox="0 0 116 40" fill="none" xmlns="http://www.w3.org/2000/svg">
    <path d="M40.84 17.32L29 39H21.48L19.44 27.2L13.08 39H5.64L1.96 17.32H8.92L10.88 30.36L18.04 17.32H24.56L26.56 30.36L33.72 17.32H40.84ZM65.3716 17.32L61.0516 39H53.8516L54.2916 36.96C52.5582 38.56 50.4649 39.36 48.0116 39.36C46.4116 39.36 44.9049 38.9733 43.4916 38.2C42.1049 37.4 40.9849 36.2533 40.1316 34.76C39.2782 33.2667 38.8516 31.5067 38.8516 29.48C38.8516 27.1333 39.3716 25.0133 40.4116 23.12C41.4782 21.2 42.9049 19.6933 44.6916 18.6C46.5049 17.5067 48.4782 16.96 50.6116 16.96C53.7582 16.96 55.9716 17.9467 57.2516 19.92L57.7716 17.32H65.3716ZM50.6516 33.24C52.1716 33.24 53.4116 32.68 54.3716 31.56C55.3316 30.44 55.8116 28.9867 55.8116 27.2C55.8116 25.92 55.4382 24.9067 54.6916 24.16C53.9716 23.4133 52.9716 23.04 51.6916 23.04C50.1716 23.04 48.9316 23.6 47.9716 24.72C47.0116 25.84 46.5316 27.3067 46.5316 29.12C46.5316 30.4 46.8916 31.4133 47.6116 32.16C48.3582 32.88 49.3716 33.24 50.6516 33.24ZM93.1041 17.32L79.8641 39H71.9841L67.3841 17.32H74.9041L77.5441 30.6L85.5841 17.32H93.1041ZM114.683 26.48C114.683 27.52 114.536 28.7067 114.243 30.04H98.3228C98.5895 32.3867 100.229 33.56 103.243 33.56C104.203 33.56 105.136 33.4133 106.043 33.12C106.949 32.8267 107.763 32.3867 108.483 31.8L111.643 36.56C109.109 38.4267 106.029 39.36 102.403 39.36C100.109 39.36 98.0828 38.96 96.3228 38.16C94.5895 37.3333 93.2428 36.1867 92.2828 34.72C91.3495 33.2267 90.8828 31.48 90.8828 29.48C90.8828 27.1067 91.4295 24.9733 92.5228 23.08C93.6428 21.16 95.1895 19.6667 97.1628 18.6C99.1628 17.5067 101.443 16.96 104.003 16.96C106.163 16.96 108.043 17.36 109.643 18.16C111.269 18.9333 112.509 20.04 113.363 21.48C114.243 22.92 114.683 24.5867 114.683 26.48ZM103.643 22.36C102.416 22.36 101.389 22.6933 100.563 23.36C99.7361 24 99.1361 24.8933 98.7628 26.04H107.683C107.709 24.8933 107.349 24 106.603 23.36C105.856 22.6933 104.869 22.36 103.643 22.36Z" fill="#2968F6"/>
    <path d="M59.44 14.28C58.4533 14.28 57.6 14.1067 56.88 13.76C56.1867 13.4133 55.4267 12.92 54.6 12.28C54.0933 11.88 53.6533 11.5733 53.28 11.36C52.9067 11.1467 52.52 11.04 52.12 11.04C51.4 11.04 50.8 11.2933 50.32 11.8C49.84 12.28 49.52 12.96 49.36 13.84H44.64C45.0133 11.28 45.9067 9.28 47.32 7.84C48.7333 6.37333 50.3733 5.64 52.24 5.64C53.2267 5.64 54.0667 5.81333 54.76 6.16C55.48 6.50667 56.2533 7 57.08 7.64C57.5867 8.04 58.0267 8.34667 58.4 8.56C58.7733 8.77333 59.16 8.88 59.56 8.88C60.2533 8.88 60.84 8.62667 61.32 8.12C61.8 7.61333 62.12 6.92 62.28 6.04H67C66.6 8.6 65.7067 10.6133 64.32 12.08C62.9333 13.5467 61.3067 14.28 59.44 14.28Z" fill="#2968F6"/>
</svg>
